<?xml version="1.0" encoding="utf-8"?>
<!-- Generator: Adobe Illustrator 24.3.0, SVG Export Plug-In . SVG Version: 6.00 Build 0)  -->
<svg version="1.1" id="Camada_1" xmlns="http://www.w3.org/2000/svg" xmlns:xlink="http://www.w3.org/1999/xlink" x="0px" y="0px"
	 viewBox="0 0 28.8 18" style="enable-background:new 0 0 28.8 18;" xml:space="preserve">
<style type="text/css">
	.st0{fill:#9A9A9A;}
</style>
<path class="st0" d="M24,17v1h-4v-1h0.8c0.3,0,0.4-0.2,0.3-0.4l-0.5-1.4h-2.2l-0.6-1.6h2.3l-1.4-4.1L17.7,13l-0.9-2.5L17.7,8h2.2
	l3,8.5c0.1,0.3,0.2,0.5,0.6,0.5L24,17z M18,16h1v2h-7v-2h0.5c0.4,0,0.7-0.3,0.7-0.7c0-0.1,0-0.1,0-0.2L12.4,13H6.1l-0.8,2.1
	c-0.1,0.3,0.1,0.7,0.4,0.9c0.1,0,0.1,0,0.2,0H7v2H0v-2h0.5c0.6,0,1.1-0.4,1.3-0.9L7.3,0h4l5.5,15.1C16.9,15.6,17.4,16,18,16z
	 M7.1,10h4.2L9.1,3.8L7.1,10z"/>
<path class="st0" d="M28.8,7.4v1.7h-7.1V7.4H28.8z M26.1,11.8h-1.8V4.7h1.8V11.8z"/>
</svg>
