<svg id="Camada_1" data-name="Camada 1" xmlns="http://www.w3.org/2000/svg" viewBox="0 0 28.76 18">
  <path d="M24.52,17.52v1h-4v-1h.83c.26,0,.41-.18.33-.42l-.48-1.37H19l-.57-1.59h2.29l-1.36-4.08-1.15,3.45L17.3,11l.92-2.49h2.22l3,8.52c.11.31.25.48.58.48Zm-6-1h1v2h-7v-2h.53a.67.67,0,0,0,.63-.89l-.81-2.11H6.64l-.82,2.11a.67.67,0,0,0,.63.89H7.52v2h-7v-2H1a1.41,1.41,0,0,0,1.32-.94L7.78.52h4l5.51,15.06A1.35,1.35,0,0,0,18.52,16.52Zm-10.89-6h4.24L9.61,4.32Z" transform="translate(-0.52 -0.52)"/>
  <path d="M29.28,7.9V9.6H22.14V7.9ZM26.6,12.32H24.81V5.18H26.6Z" transform="translate(-0.52 -0.52)"/>
</svg>
